<svg xmlns="http://www.w3.org/2000/svg" width="1280" height="520" viewBox="0 0 1280 520" font-family="Liberation Sans, Arial, Helvetica, sans-serif">
  <defs>
    <pattern id="dots" width="28" height="28" patternUnits="userSpaceOnUse">
      <circle cx="4" cy="4" r="1.6" fill="#ffffff" opacity="0.06"/>
    </pattern>
  </defs>

  <rect width="1280" height="520" fill="#1b2026"/>
  <rect width="1280" height="520" fill="url(#dots)"/>

  <!-- corner framing -->
  <text x="80" y="84" font-size="13" letter-spacing="4" fill="#ffffff" opacity="0.4">PACKETS</text>
  <text x="1200" y="84" font-size="13" letter-spacing="4" fill="#ffffff" opacity="0.4" text-anchor="end">PIXELS</text>

  <!-- the keystroke: origin of the packets -->
  <rect x="120" y="190" width="240" height="150" rx="14" fill="#ffffff" fill-opacity="0.04" stroke="#ffffff" stroke-opacity="0.18" stroke-width="1.5"/>
  <circle cx="146" cy="216" r="4.5" fill="#ffffff" opacity="0.25"/>
  <circle cx="162" cy="216" r="4.5" fill="#ffffff" opacity="0.25"/>
  <circle cx="178" cy="216" r="4.5" fill="#ffffff" opacity="0.25"/>
  <rect x="140" y="242" width="200" height="40" rx="20" fill="#ffffff" fill-opacity="0.06" stroke="#ffffff" stroke-opacity="0.2" stroke-width="1.5"/>
  <circle cx="164" cy="262" r="8" fill="none" stroke="#fd7e14" stroke-width="2"/>
  <line x1="156" y1="262" x2="172" y2="262" stroke="#fd7e14" stroke-width="1.5"/>
  <line x1="164" y1="254" x2="164" y2="270" stroke="#fd7e14" stroke-width="1.5"/>
  <text x="182" y="267" font-size="14" fill="#c2cad2">example.com</text>
  <line x1="290" y1="253" x2="290" y2="271" stroke="#fd7e14" stroke-width="2"/>
  <text x="240" y="368" font-size="11" letter-spacing="2" fill="#ffffff" opacity="0.35" text-anchor="middle">YOU PRESS ENTER</text>

  <!-- packet trail from keystroke to page -->
  <rect x="384" y="254" width="12" height="12" rx="3" fill="#fd7e14" opacity="0.3" transform="rotate(12 390 260)"/>
  <rect x="430" y="246" width="12" height="12" rx="3" fill="#fd7e14" opacity="0.38" transform="rotate(-8 436 252)"/>
  <rect x="476" y="236" width="13" height="13" rx="3" fill="#fd7e14" opacity="0.46" transform="rotate(16 482 242)"/>
  <rect x="522" y="226" width="13" height="13" rx="3" fill="#fd7e14" opacity="0.54" transform="rotate(-12 528 232)"/>
  <rect x="566" y="216" width="14" height="14" rx="3" fill="#fd7e14" opacity="0.62" transform="rotate(8 573 223)"/>
  <rect x="610" y="206" width="14" height="14" rx="3" fill="#fd7e14" opacity="0.7" transform="rotate(-14 617 213)"/>
  <rect x="654" y="196" width="15" height="15" rx="3" fill="#fd7e14" opacity="0.78" transform="rotate(10 661 203)"/>
  <rect x="698" y="188" width="15" height="15" rx="3" fill="#fd7e14" opacity="0.86" transform="rotate(-8 705 195)"/>
  <rect x="734" y="182" width="16" height="16" rx="3" fill="#fd7e14" opacity="0.93" transform="rotate(8 742 190)"/>

  <!-- assembling page -->
  <rect x="760" y="110" width="400" height="280" rx="14" fill="#ffffff" fill-opacity="0.04" stroke="#ffffff" stroke-opacity="0.18" stroke-width="1.5"/>
  <circle cx="786" cy="138" r="4.5" fill="#ffffff" opacity="0.25"/>
  <circle cx="802" cy="138" r="4.5" fill="#ffffff" opacity="0.25"/>
  <circle cx="818" cy="138" r="4.5" fill="#ffffff" opacity="0.25"/>
  <line x1="760" y1="156" x2="1160" y2="156" stroke="#ffffff" stroke-opacity="0.14" stroke-width="1.5"/>

  <!-- hero bar: orange pixels, one arriving, one still missing -->
  <rect x="784" y="176" width="18" height="18" rx="4" fill="#fd7e14"/>
  <rect x="806" y="176" width="18" height="18" rx="4" fill="#fd7e14"/>
  <rect x="828" y="176" width="18" height="18" rx="4" fill="#fd7e14"/>
  <rect x="850" y="176" width="18" height="18" rx="4" fill="#fd7e14"/>
  <rect x="872" y="176" width="18" height="18" rx="4" fill="#fd7e14"/>
  <rect x="894" y="176" width="18" height="18" rx="4" fill="#fd7e14" opacity="0.7" transform="rotate(9 903 185)"/>
  <rect x="916" y="176" width="18" height="18" rx="4" fill="#fd7e14"/>
  <rect x="960" y="176" width="18" height="18" rx="4" fill="#fd7e14" opacity="0.45"/>

  <!-- text line pixels: gray, a few gaps -->
  <rect x="784" y="212" width="18" height="18" rx="4" fill="#ffffff" opacity="0.15"/>
  <rect x="806" y="212" width="18" height="18" rx="4" fill="#ffffff" opacity="0.15"/>
  <rect x="828" y="212" width="18" height="18" rx="4" fill="#ffffff" opacity="0.15"/>
  <rect x="850" y="212" width="18" height="18" rx="4" fill="#ffffff" opacity="0.15"/>
  <rect x="872" y="212" width="18" height="18" rx="4" fill="#ffffff" opacity="0.15"/>
  <rect x="894" y="212" width="18" height="18" rx="4" fill="#ffffff" opacity="0.15"/>
  <rect x="916" y="212" width="18" height="18" rx="4" fill="#ffffff" opacity="0.15"/>
  <rect x="938" y="212" width="18" height="18" rx="4" fill="#ffffff" opacity="0.15"/>
  <rect x="960" y="212" width="18" height="18" rx="4" fill="#ffffff" opacity="0.15"/>
  <rect x="1004" y="212" width="18" height="18" rx="4" fill="#ffffff" opacity="0.15"/>
  <rect x="1026" y="212" width="18" height="18" rx="4" fill="#ffffff" opacity="0.15"/>
  <rect x="1048" y="212" width="18" height="18" rx="4" fill="#ffffff" opacity="0.15"/>
  <rect x="1070" y="212" width="18" height="18" rx="4" fill="#ffffff" opacity="0.15"/>
  <rect x="1092" y="212" width="18" height="18" rx="4" fill="#ffffff" opacity="0.15"/>
  <rect x="1114" y="212" width="18" height="18" rx="4" fill="#ffffff" opacity="0.15"/>

  <rect x="784" y="248" width="18" height="18" rx="4" fill="#ffffff" opacity="0.15"/>
  <rect x="806" y="248" width="18" height="18" rx="4" fill="#ffffff" opacity="0.15"/>
  <rect x="828" y="248" width="18" height="18" rx="4" fill="#ffffff" opacity="0.15"/>
  <rect x="850" y="248" width="18" height="18" rx="4" fill="#ffffff" opacity="0.15"/>
  <rect x="894" y="248" width="18" height="18" rx="4" fill="#ffffff" opacity="0.15"/>
  <rect x="916" y="248" width="18" height="18" rx="4" fill="#ffffff" opacity="0.15"/>
  <rect x="938" y="248" width="18" height="18" rx="4" fill="#ffffff" opacity="0.15"/>
  <rect x="960" y="248" width="18" height="18" rx="4" fill="#ffffff" opacity="0.15"/>
  <rect x="982" y="248" width="18" height="18" rx="4" fill="#ffffff" opacity="0.15"/>
  <rect x="1004" y="248" width="18" height="18" rx="4" fill="#ffffff" opacity="0.15"/>
  <rect x="1026" y="248" width="18" height="18" rx="4" fill="#ffffff" opacity="0.15"/>
  <rect x="1048" y="248" width="18" height="18" rx="4" fill="#ffffff" opacity="0.15"/>
  <rect x="1070" y="248" width="18" height="18" rx="4" fill="#ffffff" opacity="0.15"/>

  <rect x="784" y="284" width="18" height="18" rx="4" fill="#ffffff" opacity="0.15"/>
  <rect x="806" y="284" width="18" height="18" rx="4" fill="#ffffff" opacity="0.15"/>
  <rect x="828" y="284" width="18" height="18" rx="4" fill="#ffffff" opacity="0.15"/>
  <rect x="850" y="284" width="18" height="18" rx="4" fill="#ffffff" opacity="0.15"/>
  <rect x="872" y="284" width="18" height="18" rx="4" fill="#ffffff" opacity="0.15"/>
  <rect x="894" y="284" width="18" height="18" rx="4" fill="#ffffff" opacity="0.15"/>
  <rect x="916" y="284" width="18" height="18" rx="4" fill="#ffffff" opacity="0.15"/>
  <rect x="960" y="284" width="18" height="18" rx="4" fill="#ffffff" opacity="0.15"/>
  <rect x="982" y="284" width="18" height="18" rx="4" fill="#ffffff" opacity="0.15"/>
  <rect x="1004" y="284" width="18" height="18" rx="4" fill="#ffffff" opacity="0.15"/>
  <rect x="1026" y="284" width="18" height="18" rx="4" fill="#ffffff" opacity="0.15"/>
  <rect x="1048" y="284" width="18" height="18" rx="4" fill="#ffffff" opacity="0.15"/>

  <rect x="784" y="320" width="18" height="18" rx="4" fill="#ffffff" opacity="0.15"/>
  <rect x="806" y="320" width="18" height="18" rx="4" fill="#ffffff" opacity="0.15"/>
  <rect x="828" y="320" width="18" height="18" rx="4" fill="#ffffff" opacity="0.15"/>
  <rect x="850" y="320" width="18" height="18" rx="4" fill="#ffffff" opacity="0.15"/>
  <rect x="872" y="320" width="18" height="18" rx="4" fill="#ffffff" opacity="0.15"/>
  <rect x="894" y="320" width="18" height="18" rx="4" fill="#ffffff" opacity="0.15"/>

  <!-- button pixels -->
  <rect x="1092" y="348" width="18" height="18" rx="4" fill="#fd7e14" opacity="0.85"/>
  <rect x="1114" y="348" width="18" height="18" rx="4" fill="#fd7e14" opacity="0.85"/>

  <!-- bottom: the four parts -->
  <line x1="80" y1="418" x2="1200" y2="418" stroke="#ffffff" stroke-opacity="0.12" stroke-width="1.5"/>
  <text x="80" y="456" font-size="14" letter-spacing="2">
    <tspan font-weight="700" fill="#fd7e14">01</tspan><tspan fill="#98a2ad" dx="8">INTERNET</tspan>
    <tspan font-weight="700" fill="#fd7e14" dx="48">02</tspan><tspan fill="#98a2ad" dx="8">HTML</tspan>
    <tspan font-weight="700" fill="#fd7e14" dx="48">03</tspan><tspan fill="#98a2ad" dx="8">CSS</tspan>
    <tspan font-weight="700" fill="#fd7e14" dx="48">04</tspan><tspan fill="#98a2ad" dx="8">JAVASCRIPT</tspan>
  </text>
  <text x="1200" y="456" font-size="14" letter-spacing="2" fill="#98a2ad" text-anchor="end">VLADIMIRGOREJ.COM</text>
</svg>
